<svg width="12" height="12" viewBox="0 0 12 12" fill="none" xmlns="http://www.w3.org/2000/svg">
<path d="M0.375 7.46249C0.582107 7.46249 0.75 7.63039 0.75 7.83749V9.71249C0.75 10.1267 1.08579 10.4625 1.5 10.4625H10.5C10.9142 10.4625 11.25 10.1267 11.25 9.71249V7.83749C11.25 7.63039 11.4179 7.46249 11.625 7.46249C11.8321 7.46249 12 7.63039 12 7.83749V9.71249C12 10.5409 11.3284 11.2125 10.5 11.2125H1.5C0.671573 11.2125 0 10.5409 0 9.71249V7.83749C0 7.63039 0.167893 7.46249 0.375 7.46249Z" fill="#1D3159"/>
<path d="M5.73484 8.92764C5.88128 9.07409 6.11872 9.07409 6.26517 8.92764L8.51517 6.67764C8.66161 6.53119 8.66161 6.29376 8.51517 6.14731C8.36872 6.00086 8.13128 6.00086 7.98483 6.14731L6.375 7.75715V1.16248C6.375 0.955369 6.20711 0.787476 6 0.787476C5.79289 0.787476 5.625 0.955369 5.625 1.16248V7.75715L4.01516 6.14731C3.86872 6.00086 3.63128 6.00086 3.48484 6.14731C3.33839 6.29376 3.33839 6.53119 3.48484 6.67764L5.73484 8.92764Z" fill="#1D3159"/>
</svg>
