<svg width="20" height="20" viewBox="0 0 20 20" fill="none" xmlns="http://www.w3.org/2000/svg">
<path d="M2.5 4.10714C2.5 3.21954 3.21954 2.5 4.10714 2.5L7.32143 2.5C8.20903 2.5 8.92857 3.21954 8.92857 4.10714V7.32143C8.92857 8.20903 8.20903 8.92857 7.32143 8.92857H4.10714C3.21954 8.92857 2.5 8.20903 2.5 7.32143L2.5 4.10714ZM4.10714 3.57143C3.81128 3.57143 3.57143 3.81128 3.57143 4.10714V7.32143C3.57143 7.6173 3.81128 7.85714 4.10714 7.85714H7.32143C7.61729 7.85714 7.85714 7.61729 7.85714 7.32143V4.10714C7.85714 3.81128 7.61729 3.57143 7.32143 3.57143H4.10714ZM11.0714 4.10714C11.0714 3.21954 11.791 2.5 12.6786 2.5L15.8929 2.5C16.7805 2.5 17.5 3.21954 17.5 4.10714V7.32143C17.5 8.20903 16.7805 8.92857 15.8929 8.92857H12.6786C11.791 8.92857 11.0714 8.20903 11.0714 7.32143V4.10714ZM12.6786 3.57143C12.3827 3.57143 12.1429 3.81128 12.1429 4.10714V7.32143C12.1429 7.61729 12.3827 7.85714 12.6786 7.85714H15.8929C16.1887 7.85714 16.4286 7.61729 16.4286 7.32143V4.10714C16.4286 3.81128 16.1887 3.57143 15.8929 3.57143H12.6786ZM2.5 12.6786C2.5 11.791 3.21954 11.0714 4.10714 11.0714H7.32143C8.20903 11.0714 8.92857 11.791 8.92857 12.6786V15.8929C8.92857 16.7805 8.20903 17.5 7.32143 17.5H4.10714C3.21954 17.5 2.5 16.7805 2.5 15.8929L2.5 12.6786ZM4.10714 12.1429C3.81128 12.1429 3.57143 12.3827 3.57143 12.6786V15.8929C3.57143 16.1887 3.81128 16.4286 4.10714 16.4286H7.32143C7.61729 16.4286 7.85714 16.1887 7.85714 15.8929V12.6786C7.85714 12.3827 7.61729 12.1429 7.32143 12.1429H4.10714ZM11.0714 12.6786C11.0714 11.791 11.791 11.0714 12.6786 11.0714H15.8929C16.7805 11.0714 17.5 11.791 17.5 12.6786V15.8929C17.5 16.7805 16.7805 17.5 15.8929 17.5H12.6786C11.791 17.5 11.0714 16.7805 11.0714 15.8929V12.6786ZM12.6786 12.1429C12.3827 12.1429 12.1429 12.3827 12.1429 12.6786V15.8929C12.1429 16.1887 12.3827 16.4286 12.6786 16.4286H15.8929C16.1887 16.4286 16.4286 16.1887 16.4286 15.8929V12.6786C16.4286 12.3827 16.1887 12.1429 15.8929 12.1429H12.6786Z" fill="#1D3159"/>
</svg>
