<svg width="14" height="14" viewBox="0 0 14 14" fill="none" xmlns="http://www.w3.org/2000/svg">
<path d="M0.671875 0.25C0.90487 0.25 1.09375 0.43888 1.09375 0.671875V13.3281C1.09375 13.5611 0.90487 13.75 0.671875 13.75C0.43888 13.75 0.25 13.5611 0.25 13.3281V0.671875C0.25 0.43888 0.43888 0.25 0.671875 0.25Z" fill="#1D3159"/>
<path d="M1.9375 1.51562C1.9375 1.28263 2.12638 1.09375 2.35938 1.09375H5.73438C5.96737 1.09375 6.15625 1.28263 6.15625 1.51562V2.35938C6.15625 2.59237 5.96737 2.78125 5.73438 2.78125H2.35938C2.12638 2.78125 1.9375 2.59237 1.9375 2.35938V1.51562Z" fill="#1D3159"/>
<path d="M3.625 4.89062C3.625 4.65763 3.81388 4.46875 4.04688 4.46875H9.95312C10.1861 4.46875 10.375 4.65763 10.375 4.89062V5.73438C10.375 5.96737 10.1861 6.15625 9.95312 6.15625H4.04688C3.81388 6.15625 3.625 5.96737 3.625 5.73438V4.89062Z" fill="#1D3159"/>
<path d="M5.3125 8.26562C5.3125 8.03263 5.50138 7.84375 5.73438 7.84375H10.7969C11.0299 7.84375 11.2188 8.03263 11.2188 8.26562V9.10938C11.2188 9.34237 11.0299 9.53125 10.7969 9.53125H5.73438C5.50138 9.53125 5.3125 9.34237 5.3125 9.10938V8.26562Z" fill="#1D3159"/>
<path d="M7 11.6406C7 11.4076 7.18888 11.2188 7.42188 11.2188H13.3281C13.5611 11.2188 13.75 11.4076 13.75 11.6406V12.4844C13.75 12.7174 13.5611 12.9062 13.3281 12.9062H7.42188C7.18888 12.9062 7 12.7174 7 12.4844V11.6406Z" fill="#1D3159"/>
</svg>
