<svg width="149" height="28" viewBox="0 0 149 28" fill="none" xmlns="http://www.w3.org/2000/svg">
<path fill-rule="evenodd" clip-rule="evenodd" d="M27.5444 11.5061C26.9047 14.399 23.6665 16.5998 19.7668 16.5998C15.4087 16.5998 11.8746 13.8491 11.8746 10.4558C11.8746 7.06238 15.4087 4.31171 19.7668 4.31171C23.6651 4.31171 26.9032 6.51254 27.5444 9.40539H35.5136L19.5739 0.235027C19.3838 0.126219 19.1299 0.0725403 18.863 0.0725403C18.5409 0.0725403 18.2 0.150882 17.936 0.301763L2.11958 9.40104C1.63647 9.67814 1.58279 10.1032 2.00207 10.344L19.9612 20.675C20.1513 20.7838 20.4052 20.8375 20.6721 20.8375C20.9942 20.8375 21.3351 20.7592 21.5992 20.6068L37.4155 11.5076L37.4213 11.5047H27.5444V11.5061ZM19.7683 7.78922C21.1828 7.78922 22.3971 8.45513 22.9237 9.40539H24.801C24.2033 7.67751 22.1766 6.40663 19.7697 6.40663C16.8914 6.40663 14.5585 8.22301 14.5585 10.463C14.5585 12.703 16.8914 14.5194 19.7697 14.5194C22.1838 14.5194 24.2149 13.2412 24.8054 11.5061H22.931C22.4087 12.4636 21.19 13.1353 19.7683 13.1353C17.8721 13.1353 16.3343 11.9384 16.3343 10.4616C16.3343 8.98466 17.8721 7.78777 19.7683 7.78777V7.78922Z" fill="#1D3159"/>
<path opacity="0.2" fill-rule="evenodd" clip-rule="evenodd" d="M37.5331 17.6545L35.1755 16.298L21.5992 24.1076C21.3351 24.2599 20.9942 24.3382 20.6707 24.3382C20.4037 24.3382 20.1484 24.2846 19.9583 24.1758L4.35959 15.2027L2.11959 16.491C1.63648 16.7695 1.58425 17.1932 2.00207 17.434L19.9612 27.765C20.1513 27.8738 20.4066 27.9275 20.6736 27.9275C20.9956 27.9275 21.3366 27.8491 21.6006 27.6968L37.417 18.5975C37.8987 18.319 37.9523 17.8953 37.5345 17.6545H37.5331Z" fill="#1D3159"/>
<path opacity="0.5" fill-rule="evenodd" clip-rule="evenodd" d="M37.5331 14.1045L35.1755 12.748L21.5992 20.5575C21.3351 20.7099 20.9942 20.7882 20.6721 20.7882C20.4052 20.7882 20.1498 20.7345 19.9612 20.6257L4.35959 11.6512L2.11959 12.9395C1.63648 13.218 1.58425 13.6417 2.00207 13.8825L19.9612 24.2135C20.1513 24.3223 20.4052 24.376 20.6721 24.376C20.9942 24.376 21.3351 24.2976 21.5992 24.1453L37.4155 15.046C37.8986 14.7675 37.9509 14.3438 37.5331 14.103V14.1045Z" fill="#1D3159"/>
<path d="M50.8178 13.1934C49.1813 13.1934 48.0715 12.7407 47.4883 11.8354C46.9051 10.9302 46.6135 9.44166 46.6135 7.36995C46.6135 5.29824 46.908 3.8228 47.497 2.94508C48.086 2.06736 49.1929 1.62778 50.8178 1.62778C51.7884 1.62778 52.8576 1.76415 54.024 2.0369L53.9588 3.50944C52.9766 3.33534 51.9959 3.2483 51.0137 3.2483C50.0315 3.2483 49.367 3.5399 49.0174 4.12311C48.6678 4.70633 48.4937 5.80311 48.4937 7.41058C48.4937 9.01804 48.662 10.1148 49.0014 10.698C49.3395 11.2812 49.9996 11.5729 50.9803 11.5729C51.961 11.5729 52.9534 11.4916 53.9573 11.3277L54.0066 12.8321C52.8837 13.0715 51.8203 13.1919 50.8164 13.1919L50.8178 13.1934Z" fill="#1D3159"/>
<path d="M63.4381 11.818C62.7679 12.7335 61.5869 13.1919 59.8968 13.1919C58.2066 13.1919 57.0228 12.732 56.3467 11.8093C55.6707 10.8881 55.3326 9.44021 55.3326 7.46571C55.3326 5.4912 55.6736 4.02446 56.3554 3.0655C57.0373 2.10653 58.2168 1.62633 59.8968 1.62633C61.5768 1.62633 62.7534 2.10363 63.4309 3.05824C64.1069 4.01286 64.445 5.48249 64.445 7.46716C64.445 9.45182 64.1098 10.9026 63.4396 11.818H63.4381ZM57.7699 10.64C58.1399 11.2842 58.8493 11.6048 59.8968 11.6048C60.9442 11.6048 61.6493 11.2885 62.0149 10.656C62.3805 10.0234 62.5633 8.96291 62.5633 7.47441C62.5633 5.98591 62.3747 4.90363 61.999 4.22757C61.6232 3.55151 60.9225 3.21348 59.8968 3.21348C58.8711 3.21348 58.1674 3.55151 57.7859 4.22757C57.4043 4.90363 57.2128 5.98011 57.2128 7.45845C57.2128 8.93679 57.3985 9.99731 57.7685 10.64H57.7699Z" fill="#1D3159"/>
<path d="M68.3693 9.02094V13.012H66.5529V1.80768H70.8066C73.3368 1.80768 74.6019 2.99587 74.6019 5.37369C74.6019 6.96664 73.9911 8.04602 72.7695 8.61327L74.6178 13.0135H72.6216L71.0025 9.02239H68.3693V9.02094ZM72.7376 5.38965C72.7376 4.04768 72.0935 3.37742 70.8066 3.37742H68.3693V7.4512H70.84C71.4943 7.4512 71.9745 7.2626 72.2792 6.88685C72.5838 6.5111 72.7376 6.01203 72.7376 5.38965Z" fill="#1D3159"/>
<path d="M80.7691 9.52871H78.4783V13.0135H76.662V1.80768H80.7677C83.308 1.80768 84.5788 3.0626 84.5788 5.56954C84.5788 6.85638 84.2597 7.83856 83.6213 8.51462C82.983 9.19068 82.0313 9.52871 80.7662 9.52871H80.7691ZM78.4783 7.95897H80.7517C82.0603 7.95897 82.7146 7.1625 82.7146 5.57099C82.7146 4.80789 82.5565 4.25224 82.2402 3.9026C81.9239 3.55441 81.4278 3.37887 80.7517 3.37887H78.4783V7.95897Z" fill="#1D3159"/>
<path d="M93.9451 11.818C93.2748 12.7335 92.0939 13.1919 90.4037 13.1919C88.7136 13.1919 87.5297 12.732 86.8537 11.8093C86.1776 10.8881 85.8396 9.44021 85.8396 7.46571C85.8396 5.4912 86.1805 4.02446 86.8624 3.0655C87.5442 2.10653 88.7252 1.62633 90.4037 1.62633C92.0823 1.62633 93.2603 2.10363 93.9378 3.05824C94.6139 4.01286 94.9519 5.48249 94.9519 7.46716C94.9519 9.45182 94.6168 10.9026 93.9465 11.818H93.9451ZM88.2769 10.64C88.6468 11.2842 89.3563 11.6048 90.4037 11.6048C91.4512 11.6048 92.1563 11.2885 92.5218 10.656C92.8874 10.0234 93.0702 8.96291 93.0702 7.47441C93.0702 5.98591 92.8816 4.90363 92.5059 4.22757C92.1301 3.55151 91.4294 3.21348 90.4037 3.21348C89.378 3.21348 88.6744 3.55151 88.2928 4.22757C87.9113 4.90363 87.7198 5.98011 87.7198 7.45845C87.7198 8.93679 87.9055 9.99731 88.2754 10.64H88.2769Z" fill="#1D3159"/>
<path d="M100.35 3.21347C98.9648 3.21347 98.2727 3.69948 98.2727 4.67005C98.2727 5.17202 98.4367 5.52892 98.7631 5.74218C99.091 5.95544 99.812 6.21658 100.931 6.52705C102.048 6.83752 102.837 7.20891 103.294 7.6398C103.752 8.07068 103.982 8.74964 103.982 9.67669C103.982 10.8547 103.646 11.7353 102.976 12.3186C102.306 12.9018 101.392 13.1934 100.236 13.1934C99.3086 13.1934 98.2829 13.0846 97.16 12.8655L96.571 12.7509L96.7509 11.2943C98.2234 11.4902 99.3463 11.5888 100.121 11.5888C101.473 11.5888 102.149 10.9896 102.149 9.78985C102.149 9.32125 101.997 8.97451 101.691 8.75109C101.385 8.52767 100.698 8.28249 99.6292 8.01555C98.56 7.7486 97.765 7.38011 97.2412 6.91151C96.7175 6.4429 96.4564 5.70156 96.4564 4.68746C96.4564 3.67337 96.7857 2.90736 97.4458 2.38943C98.1059 1.87151 99.0184 1.61182 100.186 1.61182C101.026 1.61182 102.019 1.71047 103.163 1.90632L103.736 2.00498L103.59 3.47752C102.064 3.30342 100.983 3.21638 100.35 3.21638V3.21347Z" fill="#1D3159"/>
<path d="M105.944 13.012V1.80768H107.761V13.012H105.944Z" fill="#1D3159"/>
<path d="M109.265 3.42675V1.80768H117.445V3.42675H114.288V13.012H112.456V3.42675H109.265Z" fill="#1D3159"/>
<path d="M126.368 11.818C125.698 12.7335 124.517 13.1919 122.827 13.1919C121.137 13.1919 119.953 12.732 119.277 11.8093C118.601 10.8881 118.263 9.44021 118.263 7.46571C118.263 5.4912 118.604 4.02446 119.286 3.0655C119.968 2.10653 121.149 1.62633 122.827 1.62633C124.506 1.62633 125.684 2.10363 126.361 3.05824C127.037 4.01286 127.375 5.48249 127.375 7.46716C127.375 9.45182 127.04 10.9026 126.37 11.818H126.368ZM120.7 10.64C121.07 11.2842 121.78 11.6048 122.827 11.6048C123.875 11.6048 124.58 11.2885 124.945 10.656C125.311 10.0234 125.494 8.96291 125.494 7.47441C125.494 5.98591 125.305 4.90363 124.929 4.22757C124.554 3.55151 123.853 3.21348 122.827 3.21348C121.801 3.21348 121.098 3.55151 120.716 4.22757C120.335 4.90363 120.143 5.98011 120.143 7.45845C120.143 8.93679 120.329 9.99731 120.699 10.64H120.7Z" fill="#1D3159"/>
<path d="M131.3 9.02094V13.012H129.483V1.80768H133.737C136.267 1.80768 137.532 2.99587 137.532 5.37369C137.532 6.96664 136.921 8.04602 135.7 8.61327L137.548 13.0135H135.552L133.933 9.02239H131.3V9.02094ZM135.668 5.38965C135.668 4.04768 135.024 3.37742 133.737 3.37742H131.3V7.4512H133.77C134.425 7.4512 134.905 7.2626 135.21 6.88685C135.514 6.5111 135.668 6.01203 135.668 5.38965Z" fill="#1D3159"/>
<path d="M143.356 13.012H141.523V8.39854L138.007 1.80621H140.051L142.423 6.61554L144.811 1.80621H146.839L143.354 8.39854V13.012H143.356Z" fill="#1D3159"/>
<path d="M65.7739 24.3049L67.9471 18.583H68.7784L70.943 24.3049H70.132L69.5764 22.8526H67.1478L66.5921 24.3049H65.7724H65.7739ZM67.4162 22.1563H69.3094L68.365 19.6145L67.4162 22.1563Z" fill="#1D3159"/>
<path d="M72.6418 18.5845H73.566L75.1967 20.8999L76.8477 18.5845H77.7761L75.5826 21.6746V24.3063H74.8122V21.6746L72.6433 18.5845H72.6418Z" fill="#1D3159"/>
<path d="M77.7312 22.6713V20.4284H78.4856V22.6176C78.4856 22.9426 78.561 23.195 78.7105 23.3764C78.8613 23.5577 79.0688 23.6477 79.3343 23.6477C79.4779 23.6477 79.6128 23.6274 79.7391 23.5867C79.8653 23.5461 79.9813 23.4837 80.0858 23.3981C80.1903 23.3126 80.2758 23.195 80.3382 23.0456C80.4006 22.8962 80.4311 22.7206 80.4311 22.5204V20.4284H81.1855V24.3049H80.4311V23.7246C80.3223 23.9407 80.154 24.1047 79.9233 24.2178C79.6926 24.3295 79.4605 24.3861 79.224 24.3861C78.7409 24.3861 78.3695 24.2367 78.1113 23.9378C77.853 23.639 77.7254 23.2168 77.7312 22.6713V22.6713Z" fill="#1D3159"/>
<path d="M82.4462 24.3049V18.3161H83.2006V21.0087C83.3254 20.7954 83.5096 20.6315 83.7562 20.5154C84.0029 20.4008 84.2713 20.3428 84.5629 20.3428C84.9227 20.3428 85.2491 20.424 85.5436 20.5865C85.8381 20.749 86.0746 20.9855 86.253 21.296C86.4315 21.6064 86.52 21.9619 86.52 22.3623C86.52 22.7627 86.43 23.1138 86.2487 23.4272C86.0673 23.7391 85.828 23.977 85.5305 24.1409C85.2331 24.3049 84.9082 24.3861 84.5527 24.3861C84.2713 24.3861 84.0072 24.3266 83.7577 24.2077C83.5082 24.0887 83.3225 23.9219 83.1977 23.7086V24.3049H82.4433H82.4462ZM83.2079 22.355C83.2079 22.7525 83.3326 23.0674 83.5836 23.2995C83.8331 23.5316 84.1378 23.6477 84.4976 23.6477C84.8574 23.6477 85.149 23.5258 85.3898 23.2821C85.6307 23.0383 85.7511 22.7293 85.7511 22.3536C85.7511 21.9778 85.6321 21.6688 85.3927 21.4338C85.1533 21.1988 84.8559 21.0813 84.499 21.0813C84.3395 21.0813 84.1842 21.1088 84.0333 21.1639C83.8825 21.2191 83.7446 21.2989 83.6213 21.4033C83.498 21.5078 83.3994 21.6413 83.3239 21.8066C83.2485 21.972 83.2108 22.1534 83.2108 22.3536L83.2079 22.355Z" fill="#1D3159"/>
<path d="M87.5297 19.349C87.4282 19.2562 87.3774 19.1387 87.3774 18.9979C87.3774 18.8572 87.4282 18.7397 87.5297 18.6468C87.6313 18.554 87.7531 18.5076 87.8953 18.5076C88.0375 18.5076 88.1666 18.554 88.2696 18.6468C88.3712 18.7397 88.4234 18.8572 88.4234 18.9979C88.4234 19.1387 88.3726 19.2547 88.2696 19.349C88.1681 19.4419 88.0433 19.4883 87.8953 19.4883C87.7473 19.4883 87.6313 19.4419 87.5297 19.349ZM87.5181 24.3063V20.4298H88.2725V24.3063H87.5181Z" fill="#1D3159"/>
<path d="M91.4642 21.4585C91.4642 20.9231 91.5919 20.4313 91.8472 19.9801C92.1026 19.5304 92.4522 19.1735 92.8976 18.9109C93.3415 18.6483 93.829 18.5177 94.36 18.5177C94.7923 18.5177 95.1942 18.6033 95.5656 18.7731C95.937 18.9428 96.2532 19.1793 96.5129 19.4796L95.9297 19.9642C95.7266 19.7451 95.4916 19.571 95.2217 19.4448C94.9533 19.3186 94.6661 19.2562 94.36 19.2562C93.9683 19.2562 93.6085 19.3548 93.2835 19.5507C92.9571 19.748 92.7017 20.0135 92.5146 20.3501C92.3274 20.6866 92.2346 21.0551 92.2346 21.457C92.2346 21.8589 92.3274 22.223 92.5146 22.5596C92.7017 22.8962 92.9571 23.1617 93.2835 23.3546C93.6099 23.549 93.9683 23.6462 94.36 23.6462C94.6763 23.6462 94.9708 23.5824 95.2435 23.4533C95.5163 23.3242 95.7498 23.1443 95.9442 22.9136L96.5274 23.4054C96.2707 23.7115 95.9544 23.9509 95.5786 24.1235C95.2029 24.2962 94.7967 24.3832 94.3585 24.3832C93.961 24.3832 93.5838 24.3063 93.2255 24.1525C92.8671 23.9988 92.5596 23.7899 92.3013 23.5287C92.0431 23.2661 91.84 22.9542 91.6891 22.5944C91.5382 22.2332 91.4628 21.8545 91.4628 21.457L91.4642 21.4585Z" fill="#1D3159"/>
<path d="M97.379 23.417C97.1933 23.1022 97.1005 22.7467 97.1005 22.3507C97.1005 21.9546 97.1933 21.6021 97.379 21.2931C97.5647 20.984 97.8114 20.749 98.1189 20.5865C98.4265 20.424 98.7645 20.3443 99.1345 20.3443C99.5044 20.3443 99.8425 20.4255 100.147 20.5865C100.453 20.749 100.698 20.984 100.884 21.2931C101.07 21.6021 101.163 21.9546 101.163 22.3507C101.163 22.7467 101.07 23.1022 100.884 23.417C100.698 23.7318 100.452 23.9726 100.144 24.138C99.8367 24.3034 99.5001 24.3861 99.133 24.3861C98.766 24.3861 98.428 24.3034 98.1204 24.138C97.8128 23.9726 97.5647 23.7318 97.379 23.417ZM97.8534 22.3507C97.8534 22.7366 97.9768 23.0485 98.2234 23.2879C98.47 23.5273 98.7732 23.6477 99.1316 23.6477C99.4899 23.6477 99.7888 23.5273 100.037 23.2879C100.285 23.0485 100.407 22.7351 100.407 22.3507C100.407 21.9662 100.283 21.6645 100.038 21.4309C99.7931 21.1973 99.4899 21.0812 99.1316 21.0812C98.7732 21.0812 98.47 21.1973 98.2234 21.4309C97.9768 21.6645 97.8534 21.9706 97.8534 22.3507Z" fill="#1D3159"/>
<path d="M102.164 24.3049V20.4284H102.918V21.0087C103.012 20.8143 103.166 20.6605 103.381 20.5488C103.594 20.4371 103.797 20.3733 103.989 20.3602C104.14 20.3515 104.282 20.3602 104.414 20.3849C104.903 20.4574 105.241 20.7113 105.428 21.1436C105.704 20.6112 106.15 20.3443 106.77 20.3443C107.253 20.3443 107.624 20.4937 107.881 20.794C108.138 21.0943 108.267 21.5165 108.267 22.0634V24.3063H107.513V22.1128C107.513 21.7907 107.433 21.5382 107.275 21.3569C107.117 21.1741 106.899 21.0827 106.62 21.0827C106.307 21.0798 106.058 21.1843 105.87 21.3975C105.683 21.6108 105.59 21.8821 105.59 22.2143V24.3063H104.836V22.104C104.836 21.7878 104.761 21.5382 104.61 21.3554C104.459 21.1726 104.254 21.0812 103.997 21.0812C103.697 21.0812 103.443 21.1755 103.233 21.3627C103.023 21.5499 102.918 21.8342 102.918 22.2129V24.3049H102.164V24.3049Z" fill="#1D3159"/>
<path d="M109.479 26.1909V20.4299H110.233V21.0334C110.358 20.8201 110.545 20.6518 110.794 20.5285C111.044 20.4052 111.308 20.3443 111.587 20.3443C112.128 20.3443 112.585 20.5329 112.959 20.9115C113.333 21.2902 113.52 21.7791 113.52 22.3797C113.52 22.7772 113.432 23.1297 113.256 23.4402C113.081 23.7507 112.846 23.9843 112.556 24.1453C112.265 24.3063 111.942 24.3861 111.587 24.3861C111.299 24.3861 111.034 24.3295 110.786 24.2178C110.538 24.1061 110.353 23.9407 110.233 23.7246V26.1894H109.479V26.1909ZM110.24 22.3869C110.24 22.7787 110.368 23.0877 110.622 23.3111C110.876 23.536 111.172 23.6477 111.51 23.6477C111.867 23.6477 112.165 23.5316 112.406 23.2995C112.647 23.0674 112.767 22.7627 112.767 22.3869C112.767 22.0112 112.647 21.6935 112.405 21.4483C112.162 21.2031 111.865 21.0812 111.511 21.0812C111.157 21.0812 110.857 21.2002 110.612 21.4367C110.365 21.6732 110.243 21.9894 110.243 22.3869H110.24Z" fill="#1D3159"/>
<path d="M114.275 22.3623C114.275 21.9619 114.365 21.6064 114.546 21.296C114.727 20.9855 114.965 20.749 115.263 20.5865C115.56 20.424 115.887 20.3428 116.244 20.3428C116.528 20.3428 116.795 20.4008 117.046 20.5154C117.297 20.6301 117.482 20.794 117.604 21.0087V20.4284H118.359V24.3049H117.604V23.7086C117.48 23.9219 117.292 24.0887 117.041 24.2077C116.79 24.3266 116.525 24.3861 116.244 24.3861C115.698 24.3861 115.234 24.199 114.851 23.8232C114.468 23.4475 114.276 22.9615 114.276 22.3637L114.275 22.3623ZM115.045 22.3536C115.045 22.7293 115.167 23.0383 115.411 23.2821C115.654 23.5258 115.953 23.6477 116.309 23.6477C116.664 23.6477 116.973 23.5316 117.223 23.2995C117.472 23.0674 117.597 22.7525 117.597 22.355C117.597 22.0895 117.532 21.8589 117.403 21.6601C117.274 21.4614 117.113 21.3148 116.921 21.222C116.73 21.1291 116.526 21.0827 116.31 21.0827C115.953 21.0827 115.653 21.2002 115.411 21.4352C115.168 21.6703 115.047 21.9778 115.047 22.355L115.045 22.3536Z" fill="#1D3159"/>
<path d="M119.615 24.3049V20.4284H120.37V21.0087C120.477 20.7925 120.648 20.6272 120.88 20.514C121.112 20.4008 121.346 20.3443 121.581 20.3443C122.061 20.3443 122.43 20.4937 122.686 20.794C122.943 21.0943 123.072 21.5165 123.072 22.0634V24.3063H122.318V22.1128C122.318 21.7878 122.242 21.5353 122.092 21.354C121.941 21.1726 121.73 21.0827 121.463 21.0827C121.32 21.0827 121.186 21.103 121.06 21.1451C120.934 21.1872 120.819 21.251 120.713 21.338C120.607 21.4251 120.525 21.5426 120.462 21.6935C120.4 21.8429 120.37 22.017 120.37 22.2143V24.3063H119.615V24.3049Z" fill="#1D3159"/>
<path d="M123.743 20.4284H124.549L125.708 23.2342L126.872 20.4284H127.679L125.27 26.1894H124.48L125.295 24.1859L123.743 20.427V20.4284Z" fill="#1D3159"/>
<path d="M62.5343 21.9575H54.0458C53.9745 21.9575 53.9167 22.0153 53.9167 22.0866V22.4218C53.9167 22.4931 53.9745 22.5509 54.0458 22.5509H62.5343C62.6056 22.5509 62.6634 22.4931 62.6634 22.4218V22.0866C62.6634 22.0153 62.6056 21.9575 62.5343 21.9575Z" fill="#B3BCCD"/>
<path d="M139.408 21.9575H130.92C130.848 21.9575 130.79 22.0153 130.79 22.0866V22.4218C130.79 22.4931 130.848 22.5509 130.92 22.5509H139.408C139.479 22.5509 139.537 22.4931 139.537 22.4218V22.0866C139.537 22.0153 139.479 21.9575 139.408 21.9575Z" fill="#B3BCCD"/>
</svg>
