<svg width="14" height="12" viewBox="0 0 14 12" fill="none" xmlns="http://www.w3.org/2000/svg">
<path fill-rule="evenodd" clip-rule="evenodd" d="M5.3125 0.9375C5.4899 0.9375 5.64835 1.04848 5.70898 1.2152L8.6875 9.40615L9.97852 5.85583C10.0391 5.68911 10.1976 5.57812 10.375 5.57812H13.3281C13.5611 5.57812 13.75 5.767 13.75 6C13.75 6.233 13.5611 6.42188 13.3281 6.42188H10.6705L9.08398 10.7848C9.02335 10.9515 8.8649 11.0625 8.6875 11.0625C8.5101 11.0625 8.35165 10.9515 8.29102 10.7848L5.3125 2.59386L4.02148 6.14417C3.96085 6.31089 3.8024 6.42188 3.625 6.42188H0.671875C0.43888 6.42188 0.25 6.233 0.25 6C0.25 5.767 0.43888 5.57812 0.671875 5.57812H3.32951L4.91602 1.2152C4.97665 1.04848 5.1351 0.9375 5.3125 0.9375Z" fill="#1D3159"/>
</svg>
