<svg width="14" height="12" viewBox="0 0 14 12" fill="none" xmlns="http://www.w3.org/2000/svg">
<path d="M7 2.60785C7.233 2.60785 7.42188 2.79673 7.42188 3.02972V4.29535C7.42188 4.52834 7.233 4.71722 7 4.71722C6.767 4.71722 6.57812 4.52834 6.57812 4.29535V3.02972C6.57812 2.79673 6.767 2.60785 7 2.60785Z" fill="#1D3159"/>
<path d="M3.39907 4.06942C3.56382 3.90467 3.83094 3.90467 3.99569 4.06942L4.76706 4.84079C4.93181 5.00554 4.93181 5.27266 4.76706 5.43741C4.60231 5.60216 4.33519 5.60216 4.17044 5.43741L3.39907 4.66604C3.23432 4.50129 3.23432 4.23417 3.39907 4.06942Z" fill="#1D3159"/>
<path d="M1.9375 7.67035C1.9375 7.43735 2.12638 7.24847 2.35938 7.24847H3.69738C3.93038 7.24847 4.11926 7.43735 4.11926 7.67035C4.11926 7.90334 3.93038 8.09222 3.69738 8.09222H2.35938C2.12638 8.09222 1.9375 7.90334 1.9375 7.67035Z" fill="#1D3159"/>
<path d="M9.95312 7.67035C9.95312 7.43735 10.142 7.24847 10.375 7.24847H11.6406C11.8736 7.24847 12.0625 7.43735 12.0625 7.67035C12.0625 7.90334 11.8736 8.09222 11.6406 8.09222H10.375C10.142 8.09222 9.95312 7.90334 9.95312 7.67035Z" fill="#1D3159"/>
<path d="M10.5896 4.08797C10.4685 3.96691 10.2747 3.95938 10.1446 4.07071L6.61801 7.08864C6.27815 7.37947 6.25802 7.89815 6.57432 8.21445C6.89791 8.53805 7.43098 8.50835 7.71663 8.15082L10.6139 4.52445C10.7181 4.394 10.7077 4.20605 10.5896 4.08797Z" fill="#1D3159"/>
<path fill-rule="evenodd" clip-rule="evenodd" d="M0.25 7.67035C0.25 3.94243 3.27208 0.920349 7 0.920349C10.7279 0.920349 13.75 3.94243 13.75 7.67035C13.75 8.45682 13.6153 9.21274 13.3674 9.91574C12.9946 10.9731 11.8113 11.2676 10.8937 10.9702C9.79214 10.6133 8.24377 10.2016 7 10.2016C5.75623 10.2016 4.20786 10.6133 3.10635 10.9702C2.18867 11.2676 1.00544 10.9731 0.632582 9.91574C0.384679 9.21274 0.25 8.45682 0.25 7.67035ZM7 1.7641C3.73807 1.7641 1.09375 4.40842 1.09375 7.67035C1.09375 8.35992 1.21175 9.02103 1.42831 9.63514C1.59961 10.1209 2.20732 10.3746 2.84624 10.1676C3.95922 9.8069 5.61489 9.35785 7 9.35785C8.38511 9.35785 10.0408 9.8069 11.1538 10.1676C11.7927 10.3746 12.4004 10.1209 12.5717 9.63514C12.7883 9.02103 12.9062 8.35992 12.9062 7.67035C12.9062 4.40842 10.2619 1.7641 7 1.7641Z" fill="#1D3159"/>
</svg>
