<svg width="14" height="14" viewBox="0 0 14 14" fill="none" xmlns="http://www.w3.org/2000/svg">
<path d="M10.1574 8.97765C10.8246 8.06928 11.2187 6.94785 11.2187 5.73437C11.2187 2.70544 8.76331 0.25 5.73437 0.25C2.70544 0.25 0.25 2.70544 0.25 5.73437C0.25 8.76331 2.70544 11.2187 5.73437 11.2187C6.94818 11.2187 8.06989 10.8244 8.97838 10.1569L8.97765 10.1574C9.00254 10.1912 9.03025 10.2235 9.0608 10.254L12.3096 13.5029C12.6391 13.8324 13.1734 13.8324 13.5029 13.5029C13.8324 13.1734 13.8324 12.6391 13.5029 12.3096L10.254 9.0608C10.2235 9.03025 10.1912 9.00254 10.1574 8.97765ZM10.375 5.73437C10.375 8.29732 8.29732 10.375 5.73437 10.375C3.17143 10.375 1.09375 8.29732 1.09375 5.73437C1.09375 3.17143 3.17143 1.09375 5.73437 1.09375C8.29732 1.09375 10.375 3.17143 10.375 5.73437Z" fill="#1D3159"/>
</svg>
