<svg width="20" height="20" viewBox="0 0 20 20" fill="none" xmlns="http://www.w3.org/2000/svg">
<path d="M2.96875 11.8281C3.22763 11.8281 3.4375 12.038 3.4375 12.2969V14.6406C3.4375 15.1584 3.85723 15.5781 4.375 15.5781H15.625C16.1428 15.5781 16.5625 15.1584 16.5625 14.6406V12.2969C16.5625 12.038 16.7724 11.8281 17.0312 11.8281C17.2901 11.8281 17.5 12.038 17.5 12.2969V14.6406C17.5 15.6762 16.6605 16.5156 15.625 16.5156H4.375C3.33947 16.5156 2.5 15.6762 2.5 14.6406V12.2969C2.5 12.038 2.70987 11.8281 2.96875 11.8281Z" fill="#1D3159"/>
<path d="M9.66854 3.62165C9.8516 3.4386 10.1484 3.4386 10.3315 3.62165L13.144 6.43415C13.327 6.61721 13.327 6.91401 13.144 7.09707C12.9609 7.28012 12.6641 7.28012 12.481 7.09707L10.4688 5.08477V13.3281C10.4688 13.587 10.2589 13.7969 10 13.7969C9.74112 13.7969 9.53125 13.587 9.53125 13.3281V5.08477L7.51896 7.09707C7.3359 7.28012 7.0391 7.28012 6.85604 7.09707C6.67299 6.91401 6.67299 6.61721 6.85604 6.43415L9.66854 3.62165Z" fill="#1D3159"/>
</svg>
