<svg width="14" height="14" viewBox="0 0 14 14" fill="none" xmlns="http://www.w3.org/2000/svg">
<path d="M8.91778 2.37006L8.14067 1.57421L8.74435 0.984736L9.26903 1.52207L10.02 1.51312C11.3891 1.49681 12.5032 2.61089 12.4869 3.98001L12.4779 4.73097L13.0153 5.25565C13.9949 6.21223 13.9949 7.78777 13.0153 8.74435L12.4779 9.26903L12.4869 10.02C12.5032 11.3891 11.3891 12.5032 10.02 12.4869L9.26903 12.4779L8.74435 13.0153C7.78777 13.9949 6.21223 13.9949 5.25565 13.0153L4.73097 12.4779L3.98001 12.4869C2.61089 12.5032 1.49681 11.3891 1.51312 10.02L1.52207 9.26903L0.984736 8.74435C0.00508799 7.78777 0.00508814 6.21223 0.984736 5.25565L1.52207 4.73097L1.51312 3.98001C1.49681 2.61089 2.61089 1.49681 3.98001 1.51312L4.73097 1.52207L5.25565 0.984736C6.21223 0.00508799 7.78777 0.00508814 8.74435 0.984736L8.14067 1.57421C7.51514 0.933597 6.48486 0.933597 5.85933 1.57421L5.08222 2.37006L3.96996 2.35681C3.07466 2.34615 2.34615 3.07466 2.35681 3.96996L2.37006 5.08222L1.57421 5.85933C0.933597 6.48486 0.933597 7.51514 1.57421 8.14067L2.37006 8.91778L2.35681 10.03C2.34615 10.9253 3.07466 11.6539 3.96996 11.6432L5.08222 11.6299L5.85933 12.4258C6.48486 13.0664 7.51514 13.0664 8.14067 12.4258L8.91778 11.6299L10.03 11.6432C10.9253 11.6539 11.6539 10.9253 11.6432 10.03L11.6299 8.91778L12.4258 8.14067C13.0664 7.51514 13.0664 6.48486 12.4258 5.85933L11.6299 5.08222L11.6432 3.96996C11.6539 3.07466 10.9253 2.34615 10.03 2.35681L8.91778 2.37006Z" fill="#1D3159"/>
</svg>
